<?xml version="1.0" encoding="UTF-8"?>
<!DOCTYPE svg PUBLIC "-//W3C//DTD SVG 1.1//EN" "http://www.w3.org/Graphics/SVG/1.1/DTD/svg11.dtd">
<svg xmlns="http://www.w3.org/2000/svg" version="1.1" width="213px" height="135px" style="shape-rendering:geometricPrecision; text-rendering:geometricPrecision; image-rendering:optimizeQuality; fill-rule:evenodd; clip-rule:evenodd" xmlns:xlink="http://www.w3.org/1999/xlink">
<g><path style="opacity:1" fill="#fdfdfd" d="M -0.5,-0.5 C 70.5,-0.5 141.5,-0.5 212.5,-0.5C 212.5,44.5 212.5,89.5 212.5,134.5C 141.5,134.5 70.5,134.5 -0.5,134.5C -0.5,89.5 -0.5,44.5 -0.5,-0.5 Z"/></g>
<g><path style="opacity:1" fill="#c3ff77" d="M 118.5,24.5 C 119.183,26.1765 120.517,26.8432 122.5,26.5C 122.5,22.8333 122.5,19.1667 122.5,15.5C 125.167,15.5 127.833,15.5 130.5,15.5C 130.177,21.69 130.51,27.69 131.5,33.5C 154.975,48.4072 178.309,63.5739 201.5,79C 196.567,82.2655 191.567,82.2655 186.5,79C 158.969,60.403 130.969,42.5697 102.5,25.5C 100.39,26.0544 98.3904,26.8877 96.5,28C 70.7702,45.3934 44.7702,62.3934 18.5,79C 13.402,82.1687 8.40197,82.1687 3.5,79C 35.5,58 67.5,37 99.5,16C 101.5,15.3333 103.5,15.3333 105.5,16C 109.716,19.0561 114.049,21.8894 118.5,24.5 Z"/></g>
<g><path style="opacity:1" fill="#d8fea6" d="M 131.5,33.5 C 130.51,27.69 130.177,21.69 130.5,15.5C 127.833,15.5 125.167,15.5 122.5,15.5C 122.5,19.1667 122.5,22.8333 122.5,26.5C 120.517,26.8432 119.183,26.1765 118.5,24.5C 119.15,24.8039 119.817,25.1373 120.5,25.5C 121.489,21.8927 121.823,18.226 121.5,14.5C 124.833,14.5 128.167,14.5 131.5,14.5C 131.5,20.8333 131.5,27.1667 131.5,33.5 Z"/></g>
<g><path style="opacity:1" fill="#1bc26b" d="M 93.5,50.5 C 94.8333,50.5 96.1667,50.5 97.5,50.5C 97.5,56.1667 97.5,61.8333 97.5,67.5C 92.1667,67.5 86.8333,67.5 81.5,67.5C 81.582,59.0823 85.582,53.4156 93.5,50.5 Z"/></g>
<g><path style="opacity:1" fill="#10c066" d="M 109.5,51.5 C 116.014,52.4238 120.014,56.0904 121.5,62.5C 121.5,63.8333 121.5,65.1667 121.5,66.5C 116.5,66.5 111.5,66.5 106.5,66.5C 106.5,61.5 106.5,56.5 106.5,51.5C 107.5,51.5 108.5,51.5 109.5,51.5 Z"/></g>
<g><path style="opacity:1" fill="#56d394" d="M 109.5,51.5 C 108.5,51.5 107.5,51.5 106.5,51.5C 106.5,56.5 106.5,61.5 106.5,66.5C 111.5,66.5 116.5,66.5 121.5,66.5C 121.5,65.1667 121.5,63.8333 121.5,62.5C 122.451,63.9187 122.784,65.5853 122.5,67.5C 116.833,67.5 111.167,67.5 105.5,67.5C 105.5,61.8333 105.5,56.1667 105.5,50.5C 107.099,50.2322 108.432,50.5655 109.5,51.5 Z"/></g>
<g><path style="opacity:1" fill="#89e1b6" d="M 97.5,75.5 C 92.1667,75.5 86.8333,75.5 81.5,75.5C 81.5,80.8333 81.5,86.1667 81.5,91.5C 80.5111,86.0247 80.1778,80.358 80.5,74.5C 86.358,74.1778 92.0247,74.5111 97.5,75.5 Z"/></g>
<g><path style="opacity:1" fill="#0ac066" d="M 97.5,75.5 C 97.5,80.8333 97.5,86.1667 97.5,91.5C 92.1667,91.5 86.8333,91.5 81.5,91.5C 81.5,86.1667 81.5,80.8333 81.5,75.5C 86.8333,75.5 92.1667,75.5 97.5,75.5 Z"/></g>
<g><path style="opacity:1" fill="#72daa7" d="M 121.5,91.5 C 121.5,86.1667 121.5,80.8333 121.5,75.5C 116.5,75.5 111.5,75.5 106.5,75.5C 106.5,80.8333 106.5,86.1667 106.5,91.5C 105.511,86.0247 105.178,80.358 105.5,74.5C 111.167,74.5 116.833,74.5 122.5,74.5C 122.822,80.358 122.489,86.0247 121.5,91.5 Z"/></g>
<g><path style="opacity:1" fill="#02bf64" d="M 121.5,91.5 C 116.5,91.5 111.5,91.5 106.5,91.5C 106.5,86.1667 106.5,80.8333 106.5,75.5C 111.5,75.5 116.5,75.5 121.5,75.5C 121.5,80.8333 121.5,86.1667 121.5,91.5 Z"/></g>
<g><path style="opacity:1" fill="#828282" d="M 22.5,125.5 C 22.1667,125.5 21.8333,125.5 21.5,125.5C 21.5,122.167 21.5,118.833 21.5,115.5C 26.1667,115.5 30.8333,115.5 35.5,115.5C 35.5,114.5 35.5,113.5 35.5,112.5C 30.8333,112.5 26.1667,112.5 21.5,112.5C 21.5,109.5 21.5,106.5 21.5,103.5C 29.1667,103.5 36.8333,103.5 44.5,103.5C 44.5,102.5 44.5,101.5 44.5,100.5C 35.5,100.5 26.5,100.5 17.5,100.5C 17.5,110.167 17.5,119.833 17.5,129.5C 16.506,119.681 16.1726,109.681 16.5,99.5C 26.1667,99.5 35.8333,99.5 45.5,99.5C 45.5,101.167 45.5,102.833 45.5,104.5C 37.8333,104.5 30.1667,104.5 22.5,104.5C 22.5,106.833 22.5,109.167 22.5,111.5C 27.1667,111.5 31.8333,111.5 36.5,111.5C 36.5,113.167 36.5,114.833 36.5,116.5C 31.8333,116.5 27.1667,116.5 22.5,116.5C 22.5,119.5 22.5,122.5 22.5,125.5 Z"/></g>
<g><path style="opacity:1" fill="#070707" d="M 21.5,125.5 C 28.9818,126.492 36.6484,126.825 44.5,126.5C 44.5,127.5 44.5,128.5 44.5,129.5C 35.5,129.5 26.5,129.5 17.5,129.5C 17.5,119.833 17.5,110.167 17.5,100.5C 26.5,100.5 35.5,100.5 44.5,100.5C 44.5,101.5 44.5,102.5 44.5,103.5C 36.8333,103.5 29.1667,103.5 21.5,103.5C 21.5,106.5 21.5,109.5 21.5,112.5C 26.1667,112.5 30.8333,112.5 35.5,112.5C 35.5,113.5 35.5,114.5 35.5,115.5C 30.8333,115.5 26.1667,115.5 21.5,115.5C 21.5,118.833 21.5,122.167 21.5,125.5 Z"/></g>
<g><path style="opacity:1" fill="#1a1a1a" d="M 76.5,100.5 C 85.8393,100.334 95.1726,100.5 104.5,101C 106.523,104.183 107.023,107.683 106,111.5C 105.097,112.701 103.931,113.535 102.5,114C 103.579,114.956 104.745,115.789 106,116.5C 106.667,119.833 106.667,123.167 106,126.5C 105.5,127 105,127.5 104.5,128C 95.2736,129.445 85.9402,129.945 76.5,129.5C 76.5,119.833 76.5,110.167 76.5,100.5 Z"/></g>
<g><path style="opacity:1" fill="#efefef" d="M 81.5,104.5 C 88.1667,104.5 94.8333,104.5 101.5,104.5C 101.768,107.119 101.435,109.619 100.5,112C 94.1754,112.5 87.8421,112.666 81.5,112.5C 81.5,109.833 81.5,107.167 81.5,104.5 Z"/></g>
<g><path style="opacity:1" fill="#383838" d="M 132.5,110.5 C 132.5,110.167 132.5,109.833 132.5,109.5C 133.5,109.5 134.5,109.5 135.5,109.5C 135.823,115.69 135.49,121.69 134.5,127.5C 135.117,121.402 134.45,115.735 132.5,110.5 Z"/></g>
<g><path style="opacity:1" fill="#5d5d5d" d="M 147.5,124.5 C 146.834,119.983 146.167,115.317 145.5,110.5C 144.506,115.456 144.173,120.456 144.5,125.5C 143.512,120.36 143.179,115.026 143.5,109.5C 144.833,109.5 146.167,109.5 147.5,109.5C 147.5,114.5 147.5,119.5 147.5,124.5 Z"/></g>
<g><path style="opacity:1" fill="#111111" d="M 175.5,110.5 C 175.414,111.496 175.748,112.329 176.5,113C 174.593,117.518 173.926,122.352 174.5,127.5C 172.547,121.926 171.88,115.926 172.5,109.5C 173.791,109.263 174.791,109.596 175.5,110.5 Z"/></g>
<g><path style="opacity:1" fill="#5c5c5c" d="M 206.5,127.5 C 205.833,104.833 205.167,104.833 204.5,127.5C 203.51,121.69 203.177,115.69 203.5,109.5C 204.833,109.5 206.167,109.5 207.5,109.5C 207.823,115.69 207.49,121.69 206.5,127.5 Z"/></g>
<g><path style="opacity:1" fill="#000000" d="M 206.5,127.5 C 205.833,127.5 205.167,127.5 204.5,127.5C 205.167,104.833 205.833,104.833 206.5,127.5 Z"/></g>
<g><path style="opacity:1" fill="#b7b7b7" d="M 65.5,112.5 C 61.5,112.5 57.5,112.5 53.5,112.5C 53.5,113.833 53.5,115.167 53.5,116.5C 57.5,116.5 61.5,116.5 65.5,116.5C 61.3656,117.485 57.0323,117.818 52.5,117.5C 52.5,115.5 52.5,113.5 52.5,111.5C 57.0323,111.182 61.3656,111.515 65.5,112.5 Z"/></g>
<g><path style="opacity:1" fill="#212121" d="M 65.5,112.5 C 65.5,113.833 65.5,115.167 65.5,116.5C 61.5,116.5 57.5,116.5 53.5,116.5C 53.5,115.167 53.5,113.833 53.5,112.5C 57.5,112.5 61.5,112.5 65.5,112.5 Z"/></g>
<g><path style="opacity:1" fill="#7b7b7b" d="M 117.5,109.5 C 118.468,111.607 118.802,113.941 118.5,116.5C 122.833,116.5 127.167,116.5 131.5,116.5C 131.198,113.941 131.532,111.607 132.5,109.5C 132.5,109.833 132.5,110.167 132.5,110.5C 132.5,112.833 132.5,115.167 132.5,117.5C 127.5,117.5 122.5,117.5 117.5,117.5C 117.5,114.833 117.5,112.167 117.5,109.5 Z"/></g>
<g><path style="opacity:1" fill="#f8f8f8" d="M 81.5,116.5 C 88.1667,116.5 94.8333,116.5 101.5,116.5C 101.777,119.448 101.444,122.281 100.5,125C 94.1754,125.5 87.8421,125.666 81.5,125.5C 81.5,122.5 81.5,119.5 81.5,116.5 Z"/></g>
<g><path style="opacity:1" fill="#0e0e0e" d="M 117.5,109.5 C 117.5,112.167 117.5,114.833 117.5,117.5C 122.5,117.5 127.5,117.5 132.5,117.5C 132.5,115.167 132.5,112.833 132.5,110.5C 134.45,115.735 135.117,121.402 134.5,127.5C 133.833,127.5 133.167,127.5 132.5,127.5C 132.5,124.833 132.5,122.167 132.5,119.5C 127.5,119.5 122.5,119.5 117.5,119.5C 117.5,122.167 117.5,124.833 117.5,127.5C 116.5,127.5 115.5,127.5 114.5,127.5C 114.5,121.5 114.5,115.5 114.5,109.5C 115.5,109.5 116.5,109.5 117.5,109.5 Z"/></g>
<g><path style="opacity:1" fill="#2d2d2d" d="M 174.5,127.5 C 173.926,122.352 174.593,117.518 176.5,113C 175.748,112.329 175.414,111.496 175.5,110.5C 178.478,113.813 181.478,117.147 184.5,120.5C 186.58,118.007 188.414,115.341 190,112.5C 191.264,110.393 193.097,109.393 195.5,109.5C 195.5,115.5 195.5,121.5 195.5,127.5C 194.5,127.5 193.5,127.5 192.5,127.5C 192.824,123.445 192.491,119.445 191.5,115.5C 189.477,118.869 186.977,121.869 184,124.5C 181.568,121.312 178.901,118.312 176,115.5C 175.824,119.688 175.324,123.688 174.5,127.5 Z"/></g>
<g><path style="opacity:1" fill="#aaaaaa" d="M 132.5,127.5 C 131.532,125.393 131.198,123.059 131.5,120.5C 127.167,120.5 122.833,120.5 118.5,120.5C 118.802,123.059 118.468,125.393 117.5,127.5C 117.5,124.833 117.5,122.167 117.5,119.5C 122.5,119.5 127.5,119.5 132.5,119.5C 132.5,122.167 132.5,124.833 132.5,127.5 Z"/></g>
<g><path style="opacity:1" fill="#363636" d="M 21.5,125.5 C 21.8333,125.5 22.1667,125.5 22.5,125.5C 30.1667,125.5 37.8333,125.5 45.5,125.5C 45.7678,127.099 45.4345,128.432 44.5,129.5C 44.5,128.5 44.5,127.5 44.5,126.5C 36.6484,126.825 28.9818,126.492 21.5,125.5 Z"/></g>
<g><path style="opacity:1" fill="#1a1a1a" d="M 144.5,125.5 C 144.173,120.456 144.506,115.456 145.5,110.5C 146.167,115.317 146.834,119.983 147.5,124.5C 151.833,124.5 156.167,124.5 160.5,124.5C 160.5,119.5 160.5,114.5 160.5,109.5C 161.5,109.5 162.5,109.5 163.5,109.5C 163.808,115.425 163.475,121.259 162.5,127C 156.833,127.667 151.167,127.667 145.5,127C 144.944,126.617 144.611,126.117 144.5,125.5 Z"/></g>
</svg>
